<?xml version="1.0" encoding="UTF-8"?>
<svg xmlns="http://www.w3.org/2000/svg" viewBox="0 0 400 500">

  <defs>
    <linearGradient id="blueGrad" x1="0%" y1="0%" x2="100%" y2="100%">
      <stop offset="0%" stop-color="#4fd1c5"/>
      <stop offset="100%" stop-color="#3182ce"/>
    </linearGradient>

    <linearGradient id="redGrad" x1="0%" y1="0%" x2="100%" y2="100%">
      <stop offset="0%" stop-color="#f56565"/>
      <stop offset="100%" stop-color="#ed8936"/>
    </linearGradient>
  </defs>

  <!-- Left ribbon -->
  <path d="
    M100 120
    L40 180
    Q20 200 40 220
    L120 300
    Q140 320 160 300
    L100 240
    Q80 220 100 200
    L160 140
    Q140 120 120 120
    Z"
        fill="url(#blueGrad)"
  />

  <!-- Right ribbon -->
  <path d="
    M300 120
    L360 180
    Q380 200 360 220
    L280 300
    Q260 320 240 300
    L300 240
    Q320 220 300 200
    L240 140
    Q260 120 280 120
    Z"
        fill="url(#redGrad)"
  />

  <rect
          x="185"
          y="110"
          width="30"
          height="230"
          rx="15"
          fill="#9ca3af"
          transform="rotate(12 200 225)"
  />

  <text x="200" y="380"
        text-anchor="middle"
        font-size="42"
        font-weight="700"
        fill="#2d3748"
        font-family="Arial, Helvetica, sans-serif">
    WE CODE
  </text>

  <text x="200" y="420"
        text-anchor="middle"
        font-size="22"
        letter-spacing="4"
        fill="#4a5568"
        font-family="Arial, Helvetica, sans-serif">
    Simplify The Spirit.
  </text>

</svg>
